<svg width="4146" height="5599" viewBox="0 0 4146 5599" fill="none" xmlns="http://www.w3.org/2000/svg">
<ellipse cx="2693.68" cy="3816.05" rx="462.47" ry="465.174" fill="white"/>
<path fill-rule="evenodd" clip-rule="evenodd" d="M2721.65 1374.17C2708.94 1297.18 2750.67 1281.2 2721.65 1208.02C2657.16 1072.41 2481.41 1078.25 2352.44 1067.83C2208.59 1062.31 2062.99 1081.31 1930.38 1139.01C1898.7 1152.79 1868.23 1169 1839.03 1187.41C1813.77 1203.34 1817.24 1233.61 1833.17 1250.13C1718.34 1412.86 1784.02 1631.29 1692.4 1802.58C1675.47 1833.2 1653.09 1860.65 1638.37 1892.51C1616.01 1940.94 1614.58 2010.33 1665.29 2042.49C1736.72 2080.85 1776.57 2004.89 1811.67 2115.01C1986.94 2498.95 2339.33 2520.58 2673.87 2320.4C2702.81 2304.29 2732.35 2286.08 2754.2 2260.77C2803.81 2204.9 2797.97 2126.33 2799.07 2056.56C2799.68 2015.67 2799.78 1974.77 2799.38 1933.88C2797.82 1768.23 2742.96 1538.45 2721.65 1374.17Z" fill="white"/>
<path fill-rule="evenodd" clip-rule="evenodd" d="M2009.13 913.677C2211.11 821.983 2440.21 787.211 2660.54 810.019C2769.29 821.259 2876.61 845.373 2978.74 884.544L2987.69 888.007C3012.9 897.718 3040.08 907.357 3059.24 927.124C3081.54 950.097 3087.79 984.837 3071.85 1013.21C3059.47 1035.26 3037.21 1051.08 3013.46 1059.52C3021.83 1066.38 3029.76 1074.03 3037.21 1082.56C3049.75 1096.87 3050.71 1117.27 3037.21 1131.38C3011.19 1158.57 2977.43 1178.24 2941.07 1187.67C2945.16 1207.41 2942.95 1229.27 2934.19 1248.94C2909.05 1305.42 2838.24 1312.16 2783.74 1308.8L2782.1 1308.7L2779.07 1343.4C2777.45 1361.89 2766.39 1376.23 2747.62 1379.07C2746.96 1379.17 2746.29 1379.23 2745.64 1379.29C2775.35 1486.81 2793.3 1597.65 2809.86 1707.84C2818.52 1765.36 2826.26 1823.01 2833.68 1880.7L2836.14 1899.93C2844.05 1962.12 2853.93 2024.94 2857.35 2087.6C2860.42 2144.45 2849.58 2198.74 2814.57 2244.62C2783.15 2285.75 2740.3 2316.57 2694.23 2339.44C2590.12 2391.15 2480.55 2429.65 2365.41 2447.52L2357.73 2448.7C2313.29 2455.49 2267.5 2461.21 2223.53 2448.9C2184.9 2438.09 2144.39 2410.21 2153.12 2365.42C2156.05 2350.29 2177.19 2349.63 2184.44 2361.33L2186.11 2364.01C2194.8 2377.81 2204.32 2390.63 2219.48 2397.75C2237.23 2406.12 2257.82 2408.46 2277.21 2408.69C2331.39 2409.32 2387.81 2395.8 2439.98 2382.26C2537.4 2356.95 2637.45 2315.68 2717.25 2253.16C2751.21 2226.59 2778.47 2193.37 2788.09 2150.62C2799.98 2097.92 2789.05 2040.3 2783.65 1987.34C2772.53 1878.04 2759.3 1768.95 2745.34 1659.99L2742.54 1638.2C2730.79 1547.09 2718.44 1455.96 2712.57 1364.33C2710.14 1361 2708.49 1357.21 2707.83 1353.06L2706.91 1347.1V1347.1C2706.12 1341.99 2705.99 1337.31 2706.55 1332.99C2706.58 1316.44 2707.04 1300 2708 1283.45C2708.16 1280.48 2708.29 1277.52 2708.39 1274.58C2691.2 1278.37 2673.88 1281.44 2656.49 1284.04C2534.23 1302.47 2410.07 1307.08 2286.83 1297.92C2225.34 1293.34 2164.32 1285.46 2103.49 1275.61C2072.52 1270.6 2041.67 1265.06 2010.91 1258.86C1988.68 1254.41 1966.91 1248.38 1945.04 1242.71C1922.48 1275.57 1910.29 1316.01 1912.66 1355.73C1915.33 1401.05 1945.5 1442.15 1937.04 1488.46C1929.09 1531.8 1891.99 1545.24 1855.36 1555.97L1839.78 1560.47C1827.8 1563.98 1819.09 1567.35 1816.92 1581.77C1813.2 1606.52 1817.78 1634.37 1818.74 1659.26C1819.89 1688.69 1821.4 1718.12 1822.1 1747.56C1822.46 1762.78 1823.05 1778.08 1823.02 1793.3C1822.98 1804.11 1821.37 1811.5 1817.19 1818.48C1820.42 1822.54 1823.31 1826.92 1825.88 1831.57C1826.71 1833.09 1824.66 1834.7 1823.45 1833.45C1820.19 1830.05 1816.72 1826.99 1813.07 1824.25C1811.23 1826.53 1809.09 1828.83 1806.58 1831.31L1806.39 1831.04V1831.04C1798.55 1838.85 1786.1 1839.61 1776.38 1831.31L1773.83 1829.09C1766.72 1822.85 1761.83 1817.66 1759.85 1807.34C1759.75 1806.82 1759.65 1806.29 1759.59 1805.76C1741.51 1805.14 1723.13 1809.42 1706.86 1818.42C1681.07 1832.69 1662.92 1853.03 1652.19 1878.14C1656.47 1883.15 1661.47 1887.63 1667.3 1891.39C1668.13 1891.95 1667.4 1893.17 1666.51 1892.74C1660.55 1889.94 1655.22 1886.48 1650.44 1882.43C1646.59 1892.31 1643.89 1902.93 1642.24 1914.17C1636.44 1953.85 1646.79 2002.33 1682.62 2024.94C1698.13 2034.73 1715.85 2040.04 1734.23 2040.1C1743.18 2040.13 1750.92 2038.62 1759.62 2036.48C1765.51 2035.03 1771.38 2032.92 1777.54 2032.92C1782.8 2032.92 1787.68 2034.24 1792.19 2036.87L1790.94 2036.98C1787.9 2037.27 1788.48 2037.4 1792.72 2037.4C1805.89 2037.96 1813.43 2051.34 1807.37 2062.98L1806.58 2064.78C1806.41 2065.14 1806.27 2065.44 1806.16 2065.68L1805.68 2068.76C1805.63 2069.06 1805.58 2069.36 1805.53 2069.67L1805.35 2070.29C1805.31 2070.39 1805.28 2070.49 1805.23 2070.59L1824.99 2100.74C1849.21 2137.63 1873.98 2174.38 1902.16 2208.07C1921.92 2231.7 1942.87 2254.87 1965 2276.33C1984.89 2295.61 2008.73 2304.9 2031.26 2320.06C2043.29 2328.11 2046.81 2344.95 2035.88 2355.79C2003.79 2387.66 1958.38 2362.35 1932.06 2336.44C1907.16 2311.89 1885.66 2282.36 1867.12 2252.79C1834.22 2200.22 1808.03 2144.32 1796.57 2083.64C1791.8 2088.03 1785.7 2090.76 1779.54 2092.91C1767.19 2097.19 1753.59 2098.97 1740.55 2099.43C1715.55 2100.26 1690.52 2094.19 1668.03 2083.45C1576.5 2039.78 1563.07 1908.99 1619.02 1831.87C1611.48 1809.97 1607.26 1786.21 1602.69 1765.95L1600.6 1756.89C1577.46 1655.73 1561.93 1549.22 1602.95 1450.09C1608.22 1437.31 1614.15 1424.85 1621.16 1412.92C1626.8 1403.32 1636.48 1393.11 1639.15 1382.2C1645.07 1358.24 1608.48 1333.05 1597.81 1314.04C1585.26 1291.72 1583.49 1265.39 1600.58 1244.98C1602.75 1242.42 1605.12 1240.04 1607.69 1237.97C1591.49 1208.57 1590.73 1171.59 1612.07 1142.58C1626.1 1123.46 1647.51 1110.08 1670.89 1106.03C1685.19 1103.56 1702.38 1104.48 1718.09 1108.9C1804.11 1028.97 1902.26 962.193 2009.13 913.677ZM1678.8 1913.77C1701.76 1893.5 1727.11 1882.89 1758.4 1885.56C1789.85 1888.26 1827.73 1901.28 1846.2 1928.27C1860.79 1949.6 1831.06 1980.88 1809.65 1964.86C1790.15 1950.26 1777.14 1933.78 1752.94 1925.93C1731.2 1918.91 1704.29 1914.4 1681.53 1918.42C1679.03 1918.85 1676.53 1915.75 1678.8 1913.77Z" fill="black"/>
<path fill-rule="evenodd" clip-rule="evenodd" d="M1975.21 2345.13C2065.31 2276.49 2291.48 2245.62 2387.64 2311.71C2482.61 2378.09 2492.96 2485.42 2537.22 2584.16C2578.97 2564.46 2647.93 2592.67 2660.04 2631.44C2675.05 2649.73 2675.72 2701.1 2686.08 2725.68C3136.6 2797.44 3205 3148.89 3259.22 3547.88C3330.96 3952.76 3493.81 4356.76 3423.11 4773.38C3432.32 4786.72 3439.59 4799.69 3446.3 4815.08C3462.39 4842.48 3441.67 4881.26 3409.21 4879.76C3367.2 4876.06 3325.61 4871.02 3283.4 4869.45C3166.39 4865.38 3049.28 4865.87 2932.23 4867.36L2916.26 4867.57C2326.36 4874.91 1736.49 4889.39 1146.56 4893.23C1125.16 4893.26 1114.68 4874.06 1117.54 4855.11C1123.29 4816.97 1128.63 4778.81 1134.21 4740.65C994.674 4777.52 846.338 4786.8 707.198 4744.52C697.465 4734.6 729.877 4739.98 735.02 4738.47C606.968 4650.92 645.209 4466.47 656.552 4333.63C727.085 3878.42 751.95 3374.76 1024.47 2986.32C1142.36 2827.8 1315.2 2702.29 1513.81 2674.05L1519.32 2673.3C1577.4 2665.55 1642.12 2663.05 1692.9 2631.44C1750 2585.83 1774.34 2501.54 1834.42 2500.75C1854.25 2500.49 1881.24 2525.6 1910.28 2542.65C1912.45 2505.14 1932.65 2473.49 1937.11 2444.41L1937.47 2441.92C1942.13 2408.02 1935.75 2377.51 1975.21 2345.13ZM2943.42 3559.91C2816.81 3471.9 2489.76 3516.12 2482.27 3521.05C2465.79 3531.9 2458.69 3532.86 2449.77 3546.95C2440.97 3548.12 2432.17 3549.33 2423.38 3550.58C2405.75 3556.34 2418.82 3578.04 2439.18 3570.3C2426.93 3623.16 2462.98 3660.75 2477.33 3713C2481.99 3729.97 2477.5 3760.49 2477.33 3777.82C2478.72 3799.93 2503.15 3826.04 2499.08 3848.21C2484.61 3927.05 2406.07 4003.96 2439.18 4080.42C2461.12 4123.6 2527.09 4145.62 2570.95 4160.31C2661.82 4195.2 2820.16 4158.99 2872.96 4080.42C2901.12 4038.51 2933.75 3932.8 2950.54 3900.01L2954.26 3847.99C2963.44 3718.69 2971.61 3579.5 2943.42 3559.91Z" fill="white"/>
<path fill-rule="evenodd" clip-rule="evenodd" d="M1812.36 2493.12C1821.1 2485.38 1834.03 2495.11 1828.48 2505.57C1816 2529.09 1803.19 2551.37 1786.44 2572.15C1776.28 2584.76 1765.4 2596.68 1754.38 2608.47C1782.67 2632.96 1806.94 2663.37 1829.86 2691.87C1859.16 2728.32 1886.87 2766.31 1919.76 2799.66C1952.2 2832.56 1988.07 2855.55 2031.44 2870.88L2040.2 2873.93C2083.77 2889.23 2130.34 2909.9 2154.9 2951.18C2159.74 2959.32 2149.99 2969.38 2141.79 2964.3C2099.12 2937.86 2048.98 2932.54 2002.52 2915.07C1957.65 2898.19 1918.53 2872.22 1883.97 2839.07C1849.47 2805.98 1820.5 2768.33 1790.28 2731.47C1760.39 2695.03 1728.22 2663.91 1692.87 2633.08C1638.33 2669.79 1576.06 2685.77 1512.75 2701.46L1505.84 2703.17C1442.45 2718.88 1379.41 2737.11 1319.94 2764.46C1267.51 2788.56 1215.94 2817.35 1173.23 2856.58C1127.9 2898.21 1092.61 2951.38 1060.31 3003.38C988.074 3119.72 937.285 3247.17 892.573 3376.16C846.07 3510.34 807.172 3647.21 775.77 3785.7C759.799 3856.14 746.828 3927.09 736.168 3998.53C731.036 4032.94 726.478 4067.42 722.474 4101.97C718.201 4138.88 717.219 4176.84 705.905 4212.32C701.055 4227.53 689.602 4233.84 678.138 4233.3L675.81 4262.44C672.722 4301.29 669.844 4340.15 668.872 4379.24C667.259 4444.23 667.99 4509.04 672.663 4573.9L673.325 4582.75C676.996 4630.08 685.2 4683.27 720.774 4717.93C757.613 4753.83 814.267 4765.11 863.92 4765.76C979.566 4767.27 1090.89 4712.59 1193.22 4664.63C1298.62 4615.23 1401.13 4560.39 1501.19 4500.93C1552.15 4470.64 1602.55 4439.35 1652.32 4407.14C1676.74 4391.33 1700.98 4375.26 1725.05 4358.92C1738.84 4349.57 1751.9 4339.31 1765.93 4331.01C1759.05 4324.6 1755.99 4314.53 1761.74 4305.74C1721.18 4270.5 1704.3 4207.63 1702.32 4156.76C1700.73 4115.69 1706.77 4074.74 1711.53 4034.06C1713.94 4013.55 1716.91 3993.08 1719.99 3972.65C1721.21 3964.59 1722.14 3955.96 1723.57 3947.44C1614.03 4007.67 1501.42 4061.31 1385.83 4108.96C1326.59 4133.39 1266.58 4155.35 1205.74 4175.48L1193.41 4179.54C1135.77 4198.42 1076.75 4216.25 1017.16 4227.05C1013.97 4227.62 1011.38 4222.92 1014.79 4221.42C1072.86 4195.78 1132.94 4174.15 1191.89 4150.54L1201.57 4146.59V4146.59C1200.46 4146.53 1199.31 4146.37 1198.1 4146.09C1163.53 4137.74 1129.23 4124.87 1095.33 4114.04C1063.86 4103.99 1028.51 4097.67 999.096 4082.5C996.833 4081.33 998.099 4078.18 1000.3 4078.03C1033.36 4075.74 1069.25 4085.38 1101.66 4091.05L1113.84 4093.18C1134.24 4096.78 1155.09 4100.65 1175.38 4105.7C1176.12 4098.89 1179.92 4092.06 1185.32 4088.05C1244.8 4043.98 1238.76 3954.96 1245.12 3889.32L1249.84 3840.58C1258.14 3755.29 1266.91 3670.01 1280.25 3585.36C1280.96 3580.84 1287.95 3582.14 1287.98 3586.41C1288.67 3691.34 1280.75 3795.79 1276.78 3900.57L1276.17 3917.75C1273.97 3982.4 1272.26 4049.53 1231.56 4099.28C1237.25 4095.95 1244.95 4095.95 1249.56 4101.43C1255.22 4108.18 1258.49 4115.75 1258.39 4123.18C1295.16 4107.76 1331.77 4091.93 1368.2 4075.78C1485.33 4023.86 1600 3965.76 1711.64 3902.89C1723.65 3896.12 1735.07 3901.44 1741.01 3910.36L1741.87 3910.23C1742.02 3910.21 1742.16 3910.2 1742.31 3910.2L1743.16 3910.16C1743.19 3910.16 1743.23 3910.16 1743.26 3910.16C1758.97 3901.52 1780.38 3907.68 1793.86 3920.28C1794.26 3920.66 1794.6 3921.07 1794.96 3921.47C1812.03 3913.8 1827.97 3903.45 1842.44 3890.33C1872.04 3863.48 1897.12 3830.28 1918.98 3796.99C1959.24 3735.67 1993.44 3667.49 2047.82 3617.02C2092.01 3576.01 2146.79 3550.48 2204.26 3534.45C2204.02 3532.77 2204.66 3530.98 2205.82 3529.79C2208.78 3526.76 2210.88 3525.72 2214.69 3527.55C2215 3527.7 2215.18 3527.91 2215.3 3528.13L2220.91 3518.54C2223.97 3513.34 2227.12 3508.1 2228.21 3506.72C2234.73 3498.5 2241.45 3490.34 2248.26 3482.35C2259.82 3468.83 2272.99 3455.49 2288.25 3446.11C2321.64 3425.58 2356.75 3437.2 2391.08 3448.42C2411.82 3455.2 2432.5 3462.2 2453.21 3469.08L2455.34 3469.78C2470.78 3474.75 2488.85 3479.09 2495.76 3495.46C2498.49 3501.94 2498.91 3508.66 2497.64 3515.18C2644.3 3477.86 2807.19 3495.01 2950.3 3538.82C2955.8 3540.5 2961.28 3545.02 2962.44 3550.95C2978.84 3635.1 2986.14 3721.39 2978.72 3806.97C2972.32 3880.84 2955.96 3953.23 2925.14 4020.86L2923.38 4024.67C2894.41 4087.35 2848.5 4164.61 2778.38 4184.25C2736.04 4196.12 2689.21 4189.12 2646.03 4186.95C2604.06 4184.84 2561.16 4184.53 2519.59 4177.93C2482.57 4172.05 2450.13 4155.44 2427.25 4125.32C2407.52 4099.33 2397.12 4067.93 2388.61 4036.69C2384.71 4037.93 2380.84 4039.25 2377.03 4040.74C2360.94 4047.02 2347.32 4057.17 2334.99 4069.11C2308.98 4094.32 2288.79 4124.94 2261.57 4149C2236.93 4170.78 2208.85 4187.72 2178.73 4200.74C2116.31 4227.72 2049.36 4238.51 1983.34 4252.81L1978.73 4253.81C1929.03 4264.72 1878.3 4278.12 1834.43 4304.01C1833.58 4311.64 1830.11 4318.81 1824.54 4323.5C1832.28 4330.77 1835.56 4342.29 1828.76 4353.09C1809.77 4383.25 1777.05 4400.41 1747.68 4419.7L1745.77 4420.96C1716.88 4440.12 1687.74 4458.91 1658.36 4477.31C1598.63 4514.73 1537.66 4550.08 1475.82 4583.89C1376.37 4638.25 1274.78 4689.53 1171.34 4736.05C1177.55 4766.61 1175.28 4798.13 1179.95 4828.89L1180.67 4833.28C1182.66 4844.7 1179.97 4854.25 1172.11 4861.71L1171.28 4862.47L1171.29 4862.37L1170.55 4863.05L1170.31 4863.25L1170.39 4863.19C1169.48 4864.02 1168.55 4864.79 1167.59 4865.45L1166.38 4866.23V4866.23C1158.81 4870.84 1149.06 4870.78 1141.31 4866.72L1140.43 4866.23L1138.94 4865.38C1128.7 4859.49 1121.64 4844.88 1125.88 4833.28C1136.33 4804.77 1140.27 4774.33 1149.91 4745.63L1142.26 4749.05V4749.05L1132.18 4753.45C1023.14 4800.63 902.012 4840.36 783.201 4808.2C730.704 4793.98 681.638 4763.91 655.372 4714.9C629.525 4666.67 625.872 4610.68 624.5 4557.03C622.806 4490.82 626.354 4423.59 635.08 4357.95C640.938 4313.89 648.021 4268.99 658.949 4225.39C653.328 4220.42 649.197 4213.31 648.105 4204.49C642.948 4162.84 651.974 4119.54 657.5 4078.11C662.897 4037.65 668.861 3997.28 675.606 3957.02C689.222 3875.74 705.044 3794.62 723.463 3714.29C756.244 3571.31 799.533 3430.88 851.65 3293.8L856.214 3281.86C904.373 3156.57 960.133 3033.95 1037.78 2923.88C1074.92 2871.22 1114.18 2823.48 1166.67 2785.53C1215.83 2749.98 1271.29 2724.38 1328.53 2704.81C1385.82 2685.23 1444.71 2672.11 1504.64 2663.95C1565.51 2655.66 1629.75 2650.57 1686.53 2625.6C1679.35 2612.71 1685.51 2595.32 1697.6 2587.33C1738.28 2560.44 1775.9 2525.45 1812.36 2493.12ZM3114.57 3662.53C3116.28 3659.94 3120.32 3661.58 3119.58 3664.64C3099.79 3745.75 3081.22 3827.01 3069.09 3909.67C3047.2 4058.85 3051.23 4209.97 3053.01 4360.25L3053.11 4368.02C3054.03 4448.97 3055.3 4529.93 3057.98 4610.84C3059.33 4651.74 3062 4693.03 3060.55 4733.95C3059.76 4756.14 3053.84 4777.14 3051.75 4799.07C3049.91 4818.24 3051.55 4837.71 3052.46 4856.92C3053.08 4869.68 3034.24 4869.14 3032.96 4856.92L3031.33 4841.11C3029.2 4821.1 3026.57 4801.21 3020.01 4782.06C3012.13 4759.03 3008.35 4736.41 3005.62 4712.23C3001.43 4675.17 2999.57 4637.74 2997.95 4600.43L2996.85 4574.61C2990.1 4418.66 2990.34 4261.98 3001.26 4106.2L3002.06 4095.07C3012.88 3947.81 3031.65 3788.7 3114.57 3662.53ZM2692.84 2734.42C2687.67 2732.29 2689.48 2724.48 2695.2 2725.84L2705.61 2728.32C2781.87 2746.6 2856.74 2766.4 2927.92 2800.41C2999.14 2834.44 3059.44 2885.24 3107.35 2947.71C3200.49 3069.14 3239.2 3216.71 3269.75 3364.14C3303.71 3527.97 3334.63 3692.39 3368.88 3856.17L3375.24 3886.68C3406.93 4039.21 3436.85 4191.84 3458.9 4346.18L3460.49 4357.37C3482.72 4516.09 3496.09 4680.3 3471.83 4839.43C3467.03 4870.91 3414.68 4863.07 3416.72 4831.97C3422.64 4742.05 3426.87 4652.6 3422.78 4562.48C3418.68 4472.34 3410.23 4382.6 3397.64 4293.25C3387.04 4218.05 3371.24 4143.8 3357.26 4069.2L3355.07 4057.42C3343.36 3993.97 3331.29 3930.59 3319.25 3867.2L3301.25 3772.3C3274.27 3630.19 3246.77 3487.96 3215.69 3346.75L3213.85 3338.44C3183.44 3202.58 3138.6 3060.27 3047.38 2952.39C2954.81 2842.9 2822.28 2787.76 2692.84 2734.42ZM2356.46 4175.44C2358.69 4170.48 2366.48 4171.02 2368.87 4175.44C2378.25 4192.76 2379.29 4214.87 2381.07 4234.42L2381.25 4236.43C2383.51 4260.29 2385.5 4284.23 2386.73 4308.16C2389.05 4353.59 2390.15 4398.95 2390.01 4444.44C2389.87 4491.05 2388.93 4537.61 2386.42 4584.15L2385.74 4596.62C2383.44 4637.07 2379.6 4682.18 2360.39 4717.54C2353.41 4730.4 2334.42 4726.62 2330.38 4713.62C2317.13 4671.05 2323.93 4620.58 2327.33 4576.99L2329.97 4542.97C2332.58 4508.95 2335.07 4474.92 2337.05 4440.85C2339.76 4394.25 2341.99 4347.61 2344.14 4300.99C2344.84 4285.84 2345.59 4270.7 2346.39 4255.55L2347.62 4232.84C2348.67 4213.85 2348.58 4193 2356.46 4175.44ZM866.865 4235.77L872.73 4230.1C890.734 4212.47 913.485 4185.32 940.1 4187C950.713 4187.67 957.476 4196.49 955.275 4206.94C950.575 4229.27 927.805 4240.86 911.414 4254.5C893.458 4269.43 876.534 4285.39 859.644 4301.51C844.659 4315.8 830.248 4330.49 816.183 4345.65L810.925 4351.35C805.883 4356.86 769.981 4389.35 773.863 4397.78L774.074 4398.16C775.154 4399.77 773.355 4401.99 771.563 4401.43C756.059 4396.53 757.027 4383.23 762.888 4369.76C774.151 4343.87 793.873 4319.93 811.096 4297.82C828.272 4275.77 846.863 4255.24 866.865 4235.77V4235.77ZM2412.64 3586.64C2400.65 3558.28 2356.49 3558.88 2331.41 3560.57C2268.28 3564.84 2199.96 3580.83 2143.78 3610.36C2085.54 3640.97 2046.31 3690.02 2011.2 3744.26L2009.56 3746.81C1975.34 3800.03 1942.39 3863.02 1888.81 3899.62C1861.53 3918.26 1829.66 3935.28 1796.55 3942.65C1794.28 3946.65 1790.59 3949.82 1785.77 3950.97L1783.52 3951.48C1774.09 3953.57 1759.44 3955.87 1746.79 3954.49C1746.87 3960.69 1746.81 3966.83 1746.96 3972.7C1747.41 3989.52 1747.6 4006.41 1747.6 4023.24C1747.61 4058.49 1745.71 4093.82 1747.18 4129.08C1748.49 4160.26 1752.89 4192.84 1767.85 4220.72C1778.82 4241.17 1793.31 4254.7 1810.8 4267.62C1853.81 4241.39 1902.45 4225.4 1951.81 4213.38C2011.52 4198.84 2072.64 4189.14 2130.99 4169.43C2159.07 4159.94 2186.06 4147.52 2210.52 4130.65C2236.48 4112.74 2256.31 4088.5 2276.71 4064.8L2279.9 4061.12C2300.72 4037.22 2323.44 4014.36 2352.87 4001.41C2378.21 3990.25 2411.6 3988.26 2433.76 3970.99C2445.35 3961.96 2446.32 3948.85 2447.54 3935.42C2433.35 3937.45 2418.32 3934.2 2404.18 3932.54L2396.85 3931.68C2383.48 3930.09 2370.41 3928.34 2357.25 3924.94C2354.8 3924.31 2354.8 3920.62 2357.25 3919.99C2372.81 3915.97 2388.23 3914.25 2404.18 3912.38L2407.93 3911.92C2422.36 3910.02 2437.53 3907.16 2451.68 3910.34C2454.22 3900.67 2457.89 3891.44 2463.04 3882.19C2470.26 3869.2 2483.93 3854.48 2485.78 3839.3C2486.33 3834.77 2485.27 3829.43 2483.14 3825.42L2482.4 3824.06C2481.5 3822.44 2480.44 3820.82 2478.89 3819.82C2478.71 3820.02 2478.35 3820.25 2477.56 3820.5C2466.66 3823.93 2457.16 3818.59 2452.12 3810.37C2430.7 3813.03 2407.33 3812.13 2387.25 3813.02L2366.95 3814C2345.26 3815 2322.58 3815.43 2302.19 3811.05C2299.34 3810.44 2298.48 3805.7 2301.33 3804.48C2326.4 3793.75 2356.8 3790.33 2383.63 3786.21C2398.62 3783.91 2413.71 3782.15 2428.74 3780.13C2438.75 3778.78 2449.37 3776.54 2459.74 3776.01C2485.73 3743.63 2471.72 3692.54 2435.55 3678.6C2422.37 3684.4 2410.52 3681.03 2396.12 3679.79C2381.75 3678.55 2367.34 3677.72 2352.91 3677.78C2323.99 3677.91 2293.35 3685.52 2264.71 3682.24C2260.06 3681.71 2255.73 3675.51 2260.36 3671.72C2282.28 3653.82 2313.69 3647.99 2341.52 3644.17L2347.28 3643.4C2356.61 3642.18 2367.95 3640.39 2379.72 3639.33C2382.38 3634.14 2387.16 3630.21 2394.33 3629.24C2396.46 3628.94 2398.6 3628.77 2400.74 3628.59L2400.71 3628.38V3628.38C2418.2 3627.54 2417.44 3597.98 2412.64 3586.64ZM1215.3 4139.62C1215 4140.1 1214.66 4140.55 1214.3 4140.99L1213.74 4141.63L1216.62 4140.46L1215.3 4139.62V4139.62ZM2717.83 3523.28C2644.22 3515.37 2570.5 3517.04 2496.67 3519.16C2490.76 3538.49 2470.21 3554.96 2450.29 3555.58C2465.89 3579.33 2467.5 3611.48 2456.56 3636.68C2479.78 3645.93 2499.79 3662.54 2511.94 3686.21C2528.78 3719.01 2526.58 3755.52 2509.93 3785.84C2524.14 3798.7 2532.52 3819.6 2531.68 3839.3C2530.74 3861.27 2517.66 3880.03 2506.79 3898.22C2495.04 3917.89 2494.64 3935.2 2491.04 3957.23C2485.75 3989.47 2464.02 4009.02 2436.06 4021.23L2437.55 4027.09C2444.76 4055.16 2453.73 4084.79 2474.33 4105.32C2500.83 4131.73 2541.95 4131.48 2576.97 4133.16L2578.66 4133.24C2610.72 4134.84 2642.77 4136.72 2674.82 4138.54L2698.86 4139.88C2735.77 4141.91 2771.21 4142.16 2801.34 4117.75C2850.53 4077.9 2884.24 4011.95 2905.59 3953.57C2950.38 3831.02 2950.92 3696.54 2930.36 3568.92C2861.4 3546.68 2789.85 3531.02 2717.83 3523.28ZM2105.64 3726.59L2106.19 3726.62C2121.34 3728.36 2131.75 3740.64 2135.46 3755.2C2140.85 3776.38 2138.21 3795.52 2151.17 3814.63C2164.5 3834.29 2172.7 3850.03 2174.63 3874.31C2175.43 3884.3 2175.07 3894.26 2177.29 3904.04L2178.9 3910.9C2180.61 3918.2 2182.01 3925.24 2181.16 3933.08C2180.38 3940.24 2176.9 3945.81 2169.73 3948.1C2146.36 3955.58 2128.32 3938.35 2122.28 3916.56C2117.06 3897.74 2124.03 3875.31 2116.67 3857.64C2112.59 3847.84 2105.08 3839.64 2100.83 3829.78C2096.62 3820 2094.51 3809.79 2093.83 3799.16C2092.55 3779.06 2110.32 3754.91 2100.4 3736.7C2098.29 3732.81 2100.68 3726.47 2105.64 3726.59ZM1795.23 3519.17C1811.06 3515.95 1829.01 3508.58 1844.62 3514.7C1852.64 3517.86 1856.6 3527.65 1849.82 3534.45C1838.06 3546.25 1820.95 3546.91 1805.1 3549.69L1803.71 3549.94C1784.97 3553.41 1766.2 3556.7 1747.4 3559.82C1712.03 3565.68 1676.57 3570.87 1641 3575.27C1604.46 3579.79 1567.81 3583.82 1531.12 3586.85L1516.92 3588.02C1485.92 3590.5 1453.67 3592.37 1423.26 3587.62C1418.84 3586.93 1419.55 3580.49 1423.26 3579.36C1456.57 3569.27 1493.12 3566.57 1527.57 3562.3C1564.19 3557.75 1600.75 3552.95 1637.21 3547.25C1673.61 3541.56 1709.97 3535.46 1746.19 3528.71C1762.57 3525.66 1778.91 3522.48 1795.23 3519.17ZM2366.24 3486.77C2352.35 3481.85 2337.07 3474.56 2322.02 3477C2296.07 3481.21 2272.98 3506.5 2252.44 3523.16L2262.75 3521.16C2315.52 3511.01 2385.41 3500.08 2429.71 3533.65C2429.82 3533.45 2429.91 3533.26 2430.04 3533.07C2433.61 3527.63 2437.75 3523.39 2442.28 3518.74C2442.71 3518.34 2443.13 3517.92 2443.54 3517.49L2445.98 3514.89L2440.4 3512.95C2428.44 3508.73 2414.29 3503.27 2412.05 3502.47L2411.89 3502.42C2396.66 3497.25 2381.4 3492.15 2366.24 3486.77ZM1932.65 2379.98C1930.48 2352.03 1973.95 2352.26 1976.1 2379.98C1980.8 2440.49 1967.19 2500.43 1937.9 2553.48C1937.68 2553.87 1937.45 2554.21 1937.22 2554.58C1955.54 2564.12 1974.07 2573.27 1993.01 2581.45C2017.24 2591.91 2041.93 2601.45 2067.06 2609.53C2089.79 2616.85 2117.79 2619.74 2136.9 2634.97C2177.2 2667.07 2162.06 2733.7 2154.31 2776.9L2153.1 2783.71C2149.24 2805.94 2146.44 2828.74 2155.81 2850.07C2165.81 2872.86 2186.03 2889.76 2204.07 2906.06L2207.72 2909.36C2223.7 2923.93 2241.96 2941.64 2253.68 2961.38C2264.38 2939.25 2278.97 2921.16 2294.39 2900.79C2305.4 2886.25 2297.56 2881.46 2289.66 2867.26C2282.05 2853.6 2278.33 2839.03 2280.71 2823.44C2285.1 2794.65 2308.1 2773.85 2330.99 2758.23C2358.02 2739.78 2388.2 2726.12 2416.14 2708.96C2473.57 2673.7 2529.49 2633.39 2579.87 2588.62C2581.26 2587.39 2583.67 2589.01 2582.56 2590.7C2542.76 2651.27 2496.09 2703.61 2438.74 2748.04C2415.48 2766.06 2391.05 2781 2366.46 2796.71L2359.39 2801.25C2349.51 2807.65 2337.19 2816.2 2332.73 2827.1C2328.24 2838.06 2337.82 2846.34 2342.97 2855.41C2359.35 2884.24 2351.45 2911.14 2332.03 2935.59L2331.13 2936.72C2311.84 2960.51 2297.22 2982.63 2290.23 3013.02C2275.2 3078.31 2296.13 3146.31 2318.04 3207.6L2318.9 3210.01C2330.75 3243.05 2343.35 3275.84 2353.64 3309.4L2356.47 3318.68C2365.8 3349.57 2373.44 3380.03 2362.98 3411.77C2359.42 3422.57 2344.7 3425.12 2338.59 3414.96C2317.02 3379.12 2311.65 3335.99 2298.13 3296.59C2284.95 3258.19 2269.82 3220.48 2257.1 3181.92C2240.71 3132.27 2229.74 3078.83 2235.7 3026.75C2235.52 3026.45 2235.33 3026.16 2235.18 3025.84L2231.01 3016.71C2219.63 2991.99 2208.65 2970.4 2187.96 2950.7C2166.39 2930.14 2142.97 2911.94 2125.99 2887.06C2089.11 2833.01 2111.92 2772.88 2116.37 2713.78L2116.88 2706.53C2117.69 2694.26 2118.13 2677.58 2110.12 2669.09C2101.11 2659.53 2079.98 2657.09 2068.02 2652.86C2037.13 2641.92 2006.68 2629.17 1977.68 2613.86C1950.07 2599.29 1923.33 2583.19 1898.43 2564.33L1885.81 2554.83C1865.9 2539.8 1845.25 2523.38 1831.91 2502.92C1830.37 2500.57 1832.99 2496.76 1835.77 2497.89C1858.05 2506.94 1878.41 2521.33 1899.25 2533.85C1899.57 2533.08 1899.95 2532.31 1900.38 2531.54C1926.17 2484.84 1936.77 2433.1 1932.65 2379.98ZM2644.27 2699.94C2653.15 2675.59 2693.6 2677.47 2691.99 2706.4C2690.75 2728.64 2681.32 2748.7 2672.69 2768.89L2671.77 2771.05C2662.87 2792.08 2652.58 2811.83 2640.28 2831.1C2616.76 2867.95 2589.22 2902.14 2559.8 2934.42C2533.13 2963.67 2498.12 2981.57 2457.78 2978.59C2440.78 2977.34 2423.63 2973.01 2408.73 2964.52C2391.04 2954.42 2371.83 2924.12 2349.26 2931.46C2347.08 2932.17 2345.04 2928.97 2346.93 2927.45C2372.98 2906.46 2402.56 2939.01 2427.5 2946.85C2465.09 2958.67 2503.66 2945.61 2527.86 2915.2C2553.11 2883.45 2576.36 2847.91 2597.59 2813.35C2608.37 2795.79 2618.21 2777.58 2626.71 2758.8C2635.28 2739.86 2637.23 2719.26 2644.27 2699.94ZM2583.68 2550.06C2582.59 2546.7 2586.76 2543.5 2589.72 2545.42C2606.84 2556.57 2621.67 2571.31 2637.46 2584.22C2654.99 2598.55 2672.64 2612.59 2690.56 2626.41C2716.69 2646.57 2686.38 2683.67 2663.38 2661.65C2631.91 2631.54 2597.44 2592.15 2583.68 2550.06ZM2489.69 2432.18C2496.64 2405.34 2537.78 2416.41 2531.78 2442.93L2531.59 2443.74C2520.23 2487.55 2536.4 2532.15 2570.93 2560.55L2572.2 2561.59C2594.04 2579.07 2563.1 2609.65 2541.47 2592.33C2494.26 2554.52 2474.62 2490.31 2489.69 2432.18Z" fill="black"/>
<path fill-rule="evenodd" clip-rule="evenodd" d="M2472.95 2216.42C2448.42 2206.4 2426.53 2189.7 2410.52 2168.36C2404.96 2160.94 2403.52 2153.11 2404.68 2145.94C2406 2137.88 2410.76 2130.58 2417.26 2125.68C2423.77 2120.77 2431.92 2118.35 2439.81 2119.58C2446.65 2120.66 2453.47 2124.41 2458.86 2132.19L2459.99 2133.74C2469.51 2146.62 2481.9 2157.19 2496.03 2164C2509.65 2170.57 2524.88 2173.63 2540.64 2171.85C2570.65 2168.46 2591.34 2152.22 2613.33 2130.16C2616.05 2127.38 2618.78 2124.5 2621.52 2121.59C2623.25 2118.94 2625.65 2117.24 2628.32 2116.35C2631.28 2115.36 2634.63 2115.41 2637.7 2116.49C2640.65 2117.52 2643.3 2119.48 2645.07 2122.08C2646.76 2124.56 2647.71 2127.62 2647.4 2131.14C2645.39 2153.99 2633.45 2174.39 2616.48 2190.41C2597.64 2208.2 2572.67 2220.51 2549.15 2224.83C2523.25 2229.58 2496.85 2226.17 2472.95 2216.42V2216.42ZM2561.37 1863.79C2588.93 1880.56 2630.93 1919.64 2601.28 1961.2C2566.38 1997.84 2516.13 1955.83 2491.37 1936.83C2468.42 1922.1 2442.62 1959.98 2463.92 1977.17C2642.84 2109.72 2715.45 1868.18 2575.31 1844.09C2559.88 1841.43 2554.15 1858.61 2561.37 1863.79ZM2240.75 1709.61C2243.79 1671.79 2301.36 1663.2 2307.09 1700.63C2312.21 1734.15 2306.18 1764.95 2291.09 1795.13C2276.67 1823.96 2240.42 1810.51 2237.68 1784.25C2234.01 1749.06 2238.86 1733.14 2240.75 1709.61ZM2678.94 1692.87C2686.97 1682.35 2698.55 1675.17 2712.44 1679.23C2755.81 1691.91 2743.03 1753.53 2727.79 1783.52C2719.52 1799.81 2692.76 1803.94 2680.67 1789.6C2660.96 1766.21 2651.52 1719.51 2676.58 1696.47C2677.26 1695.28 2678.01 1694.08 2678.94 1692.87ZM2290.47 1544.12L2297.33 1542.92C2318.52 1539.25 2344.88 1535.73 2359.87 1552.78C2367.83 1561.82 2370.56 1578.63 2359.87 1587.28C2341.07 1602.51 2320.28 1596.61 2297.75 1597.9C2279.18 1598.97 2261.33 1602.04 2243.45 1607.16C2204.2 1618.38 2172.23 1638.87 2138.71 1661.36C2134.32 1664.31 2129.83 1658.69 2131.93 1654.57C2151.27 1616.65 2188.77 1585.51 2226.32 1566.52C2246.36 1556.39 2268.3 1547.98 2290.47 1544.12ZM2639.4 1527.14L2644.64 1528.21C2701.71 1540.15 2775.86 1563.99 2802.89 1620.08C2803.92 1628.01 2802.83 1629.71 2801.94 1630.82L2801.65 1631.19C2800.92 1632.14 2800.34 1633.45 2796.9 1634.53C2795.95 1634.3 2794.99 1634.06 2794.01 1633.81C2781.63 1630.56 2771.82 1626.08 2762.34 1621.44L2752.05 1616.37C2740.11 1610.51 2728.07 1604.87 2715.31 1600.7C2688.07 1591.81 2660.06 1585.55 2631.61 1582.21C2625.45 1581.48 2619.51 1579.4 2614.83 1575.83C2610.38 1572.45 2606.98 1567.76 2605.44 1561.52C2603.43 1553.46 2604.01 1547.35 2608.33 1540.07C2611.58 1534.61 2616.24 1530.82 2621.58 1528.64C2627.03 1526.42 2633.23 1525.9 2639.4 1527.14Z" fill="black"/>
<path fill-rule="evenodd" clip-rule="evenodd" d="M2632.28 2112C2641.49 2121.45 2650.33 2131.57 2658.67 2142.03C2660.99 2158.64 2661.52 2175.46 2659.41 2192.81C2656.31 2217.97 2649.46 2242.55 2640.18 2266.16C2634.7 2265.38 2629.29 2263.84 2624.01 2261.42C2607.27 2253.71 2597.93 2238.21 2586.6 2224.52C2564.05 2197.32 2522.9 2181.24 2494.13 2209.46C2481.63 2221.73 2473.63 2238.71 2462.47 2252.2C2450.2 2267.03 2436.42 2281.12 2422.03 2293.9C2420.25 2295.52 2418.4 2297.26 2416.48 2298.98C2408.48 2289.83 2400.62 2280.62 2392.92 2271.27C2370.03 2243.42 2350.27 2212.58 2339.88 2177.81C2336.59 2166.78 2334.54 2155.28 2333.73 2143.68C2343.91 2131.03 2355.54 2119.53 2368.75 2110.01C2408.58 2081.26 2454.47 2076.59 2502.2 2074.1C2551.57 2071.54 2596.05 2074.9 2632.28 2112M2752.75 2245.41C2750.83 2226.17 2747.88 2206.16 2743.51 2186.19C2727.54 2112.06 2692.95 2038.18 2623.61 2004.31C2590.8 1988.27 2553.52 1982.62 2518.16 1990.36C2456.11 1967.12 2387.21 1990.83 2338.37 2033.34C2280.75 2083.48 2254.17 2162.17 2245.23 2235.89C2239.01 2287.18 2236.66 2355.7 2251.21 2392.91C2265.75 2430.12 2358.19 2529.63 2490.13 2530.32C2678.06 2531.3 2723.74 2404.51 2729.29 2393.41C2752.45 2347.27 2757.82 2296.32 2752.75 2245.41" fill="black"/>
<path fill-rule="evenodd" clip-rule="evenodd" d="M2901.05 1718.58C2871.58 1918.27 2665.87 1940.36 2629.32 1742.11C2635.19 1739.54 2639.41 1734.48 2638.53 1724.64C2638.32 1681.44 2651.71 1635.78 2690.61 1611.75C2730.81 1586.96 2777.85 1584.51 2824.37 1585.13C2913.15 1583.01 2911.28 1657.35 2901.05 1718.58M2597.12 1631.74C2569.26 1630.56 2534.01 1631.55 2509.05 1648.55C2502.19 1630.04 2484.36 1610.28 2466.35 1599.71C2533.3 1601.67 2602.22 1595.07 2669.68 1589.95C2653.53 1600.97 2638.51 1617.54 2628.74 1636.69C2619.69 1631.85 2606.71 1632.3 2597.12 1631.74M2474.31 1739.76C2397.06 2006.16 2204.22 1890.05 2183.19 1855.9C2145.27 1799.41 2138.14 1662.07 2171.17 1625.34C2218.45 1592.14 2285.39 1600.68 2341.25 1599.87C2443.87 1601.26 2516.75 1632.01 2474.31 1739.76M2992.27 1617.23C2971.28 1614.48 2948.85 1613.92 2929.33 1623.18C2923.33 1597.59 2904.46 1576.2 2883.16 1566.79C2880.58 1563.55 2880.97 1561.81 2872.17 1562.3C2818.09 1546.02 2757.58 1554.63 2705.62 1571.33C2623.55 1578.25 2537.45 1583.71 2454.69 1593.25C2377.16 1558.37 2143.21 1553.26 2128.67 1639.23C2110.38 1636.49 2079.23 1622.07 2063.87 1641.63C1951.14 1622.48 1834.66 1649.09 1721.44 1660.94C1692.95 1666.2 1678.27 1722.85 1710.62 1722.08C1728.8 1717.14 1710.06 1686.8 1734.55 1684.52C1843.78 1672.57 1950.63 1655.61 2060.98 1653.62C2057.14 1672.71 2133.97 1673.96 2135.1 1662.81C2135.26 1662.89 2135.44 1662.95 2135.6 1663.02C2116.62 1733.9 2133.76 1835.9 2168.06 1879.85C2216.13 1937.41 2336.82 1953.92 2390.33 1916.89C2459.36 1882.71 2531.17 1711.16 2511 1654.17C2547.6 1642.55 2583.79 1646.03 2621.79 1651.96C2613.09 1676.57 2598.07 1737.16 2619.68 1742.42C2615.71 1862.71 2724.99 1937.77 2825.74 1888.43C2912.93 1847.42 2943.43 1717.62 2932.76 1638.84C2943.61 1659.85 3034.76 1636.97 2992.27 1617.23" fill="black"/>
</svg>
